<mxfile host="app.diagrams.net" modified="2024-07-19T06:14:51.745Z" agent="Mozilla/5.0 (Windows NT 10.0; Win64; x64) AppleWebKit/537.36 (KHTML, like Gecko) Chrome/109.0.0.0 Safari/537.36" version="24.6.5" etag="6VYSyM-C9rViSBy2LhtA" type="github">
  <diagram name="第 1 页" id="GGc7hq9nanX3dWX2lb0N">
    <mxGraphModel>
      <root>
        <mxCell id="0" />
        <mxCell id="1" parent="0" />
      </root>
    </mxGraphModel>
  </diagram>
</mxfile>
